<?xml version="1.0" standalone="no"?>
<!DOCTYPE svg PUBLIC "-//W3C//DTD SVG 20010904//EN"
 "http://www.w3.org/TR/2001/REC-SVG-20010904/DTD/svg10.dtd">
<svg version="1.0" xmlns="http://www.w3.org/2000/svg"
 width="295.000000pt" height="295.000000pt" viewBox="0 0 295.000000 295.000000"
 preserveAspectRatio="xMidYMid meet">
<metadata>
Created by potrace 1.14, written by Peter Selinger 2001-2017
</metadata>
<g transform="translate(0.000000,295.000000) scale(0.100000,-0.100000)"
fill="#000000" stroke="none">
<path d="M2027 2931 c-258 -104 -276 -454 -31 -576 77 -38 193 -42 265 -9 64
30 125 88 157 148 23 44 27 63 27 141 0 76 -4 98 -24 138 -32 61 -92 120 -150
148 -66 31 -181 36 -244 10z"/>
<path d="M781 2923 c-173 -36 -275 -133 -305 -292 -11 -56 -13 -226 -11 -838
1 -423 5 -777 8 -788 2 -11 8 -40 12 -65 7 -44 24 -113 43 -176 34 -110 122
-254 211 -345 211 -215 563 -306 851 -219 82 25 127 64 166 147 71 147 6 341
-132 393 -15 6 -61 13 -103 16 -173 11 -229 20 -295 45 -70 26 -121 65 -156
117 -65 99 -89 207 -86 402 l1 124 280 1 c259 1 283 2 325 21 50 23 115 89
136 139 55 134 7 299 -108 364 l-53 31 -292 0 c-227 0 -293 3 -294 13 0 6 -1
218 -2 470 l0 458 -66 -2 c-36 -1 -95 -8 -130 -16z"/>
<path d="M1916 2251 c-1 -3 -2 -420 -1 -926 2 -952 2 -960 42 -1040 22 -43 72
-84 113 -92 27 -5 284 -8 348 -4 9 1 12 215 12 1035 l0 1034 -255 0 c-141 -1
-257 -4 -259 -7z"/>
</g>
</svg>
